<svg xmlns="http://www.w3.org/2000/svg" xmlns:svg="http://www.w3.org/2000/svg" xmlns:xlink="http://www.w3.org/1999/xlink" id="svg841" width="256" height="256" version="1.1" viewBox="0 0 67.733 67.733"><defs id="defs835"><linearGradient id="linearGradient872"><stop id="stop868" offset="0" style="stop-color:#217844;stop-opacity:1"/><stop id="stop870" offset="1" style="stop-color:#37c871;stop-opacity:1"/></linearGradient><linearGradient id="linearGradient860" x1="47.625" x2="37.042" y1="261.017" y2="261.017" gradientTransform="matrix(-2,0,0,2,101.6,-267.36667)" gradientUnits="userSpaceOnUse" xlink:href="#linearGradient872"/><filter style="color-interpolation-filters:sRGB" id="filter2272"><feColorMatrix id="feColorMatrix2258" in="SourceGraphic" result="colormatrix1" type="hueRotate" values="0"/><feColorMatrix id="feColorMatrix2260" result="colormatrix2" type="matrix" values="0.5 0 0.5 0 0 0 1 0 0 0 0.5 0 0.5 0 0 0 0 0 1 0"/><feColorMatrix id="feColorMatrix2262" result="colormatrix3" type="hueRotate" values="50"/><feBlend id="feBlend2264" in2="colormatrix3" mode="normal" result="blend1"/><feColorMatrix id="feColorMatrix2266" result="colormatrix4" type="matrix" values="2.5 -0.75 -0.75 0 0 -0.75 2.5 -0.75 0 0 -0.75 -0.75 2.5 0 0 0 0 0 1 0"/><feComposite id="feComposite2268" in="colormatrix4" in2="blend1" k2=".3" operator="arithmetic" result="composite1"/><feBlend id="feBlend2270" in2="blend1" mode="normal" result="blend2"/></filter><filter style="color-interpolation-filters:sRGB" id="filter2272-9"><feColorMatrix id="feColorMatrix2258-6" in="SourceGraphic" result="colormatrix1" type="hueRotate" values="0"/><feColorMatrix id="feColorMatrix2260-1" result="colormatrix2" type="matrix" values="0.5 0 0.5 0 0 0 1 0 0 0 0.5 0 0.5 0 0 0 0 0 1 0"/><feColorMatrix id="feColorMatrix2262-9" result="colormatrix3" type="hueRotate" values="50"/><feBlend id="feBlend2264-6" in2="colormatrix3" mode="normal" result="blend1"/><feColorMatrix id="feColorMatrix2266-5" result="colormatrix4" type="matrix" values="2.5 -0.75 -0.75 0 0 -0.75 2.5 -0.75 0 0 -0.75 -0.75 2.5 0 0 0 0 0 1 0"/><feComposite id="feComposite2268-9" in="colormatrix4" in2="blend1" k1="0" k2=".3" k3="0" k4="0" operator="arithmetic" result="composite1"/><feBlend id="feBlend2270-0" in2="blend1" mode="normal" result="blend2"/></filter><filter style="color-interpolation-filters:sRGB" id="filter3370"><feColorMatrix id="feColorMatrix3356" in="SourceGraphic" result="colormatrix1" type="hueRotate" values="0"/><feColorMatrix id="feColorMatrix3358" result="colormatrix2" type="matrix" values="0.5 0 0.5 0 0 0 1 0 0 0 0.5 0 0.5 0 0 0 0 0 1 0"/><feColorMatrix id="feColorMatrix3360" result="colormatrix3" type="hueRotate" values="50"/><feBlend id="feBlend3362" in2="colormatrix3" mode="normal" result="blend1"/><feColorMatrix id="feColorMatrix3364" result="colormatrix4" type="matrix" values="2.5 -0.75 -0.75 0 0 -0.75 2.5 -0.75 0 0 -0.75 -0.75 2.5 0 0 0 0 0 1 0"/><feComposite id="feComposite3366" in="colormatrix4" in2="blend1" k1="0" k2=".3" k3="0" k4="0" operator="arithmetic" result="composite1"/><feBlend id="feBlend3368" in2="blend1" mode="normal" result="blend2"/></filter><filter style="color-interpolation-filters:sRGB" id="filter2272-9-8"><feColorMatrix id="feColorMatrix2258-6-4" in="SourceGraphic" result="colormatrix1" type="hueRotate" values="0"/><feColorMatrix id="feColorMatrix2260-1-3" result="colormatrix2" type="matrix" values="0.5 0 0.5 0 0 0 1 0 0 0 0.5 0 0.5 0 0 0 0 0 1 0"/><feColorMatrix id="feColorMatrix2262-9-1" result="colormatrix3" type="hueRotate" values="50"/><feBlend id="feBlend2264-6-4" in2="colormatrix3" mode="normal" result="blend1"/><feColorMatrix id="feColorMatrix2266-5-9" result="colormatrix4" type="matrix" values="2.5 -0.75 -0.75 0 0 -0.75 2.5 -0.75 0 0 -0.75 -0.75 2.5 0 0 0 0 0 1 0"/><feComposite id="feComposite2268-9-2" in="colormatrix4" in2="blend1" k1="0" k2=".3" k3="0" k4="0" operator="arithmetic" result="composite1"/><feBlend id="feBlend2270-0-06" in2="blend1" mode="normal" result="blend2"/></filter><filter style="color-interpolation-filters:sRGB" id="filter2400"><feColorMatrix id="feColorMatrix2386" in="SourceGraphic" result="colormatrix1" type="hueRotate" values="0"/><feColorMatrix id="feColorMatrix2388" result="colormatrix2" type="matrix" values="0.5 0 0.5 0 0 0 1 0 0 0 0.5 0 0.5 0 0 0 0 0 1 0"/><feColorMatrix id="feColorMatrix2390" result="colormatrix3" type="hueRotate" values="50"/><feBlend id="feBlend2392" in2="colormatrix3" mode="normal" result="blend1"/><feColorMatrix id="feColorMatrix2394" result="colormatrix4" type="matrix" values="2.5 -0.75 -0.75 0 0 -0.75 2.5 -0.75 0 0 -0.75 -0.75 2.5 0 0 0 0 0 1 0"/><feComposite id="feComposite2396" in="colormatrix4" in2="blend1" k1="0" k2=".3" k3="0" k4="0" operator="arithmetic" result="composite1"/><feBlend id="feBlend2398" in2="blend1" mode="normal" result="blend2"/></filter><linearGradient id="linearGradient848" x1="162.116" x2="174.09" y1="-210.011" y2="-221.984" gradientTransform="matrix(-1.2374369,1.3155474,-1.2374369,-1.3155474,-25.399998,-231.53639)" gradientUnits="userSpaceOnUse" xlink:href="#linearGradient846"/><linearGradient id="linearGradient846"><stop style="stop-color:#87deaa;stop-opacity:1" id="stop842" offset="0"/><stop style="stop-color:#217844;stop-opacity:1" id="stop844" offset="1"/></linearGradient><radialGradient id="radialGradient1198" cx="42.787" cy="239.321" r="33.867" fx="42.787" fy="239.321" gradientTransform="matrix(-8.2222235e-7,0.8139534,-0.98437474,0,269.44814,227.1254)" gradientUnits="userSpaceOnUse" xlink:href="#linearGradient1025"/><linearGradient id="linearGradient1025"><stop style="stop-color:#2affd5;stop-opacity:1" id="stop1021" offset="0"/><stop style="stop-color:#008066;stop-opacity:1" id="stop1023" offset="1"/></linearGradient><linearGradient id="linearGradient2332" x1="32" x2="32" y1="32" y2="240" gradientTransform="matrix(0.26458333,0,0,0.26458333,-59.266738,356.26695)" gradientUnits="userSpaceOnUse" xlink:href="#linearGradient2362"/><linearGradient id="linearGradient2362"><stop style="stop-color:#5fd3bc;stop-opacity:1" id="stop2358" offset="0"/><stop style="stop-color:#2ad4ff;stop-opacity:1" id="stop2360" offset="1"/></linearGradient></defs><metadata id="metadata838"/><g id="layer1" transform="translate(0,-229.26667)"><g id="g2598" transform="translate(52.916737,-127.00025)"><path id="path2205" d="m 2.1517325,361.31677 c -0.64779,0.0243 -1.28572902,0.1737 -1.87636902,0.43046 l -7.63984398,3.3197 a 2.1168783,2.1168783 0 0 0 -0.0041,0.002 c -0.0657,0.0287 -0.130897,0.0587 -0.195337,0.0899 l -11.4861285,5.54643 -11.489221,-5.54798 a 2.1168783,2.1168783 0 0 0 -0.0026,-0.002 c -0.06504,-0.0313 -0.130578,-0.0612 -0.196887,-0.0899 l -7.636681,-3.31916 a 2.1168783,2.1168783 0 0 0 -5.29e-4,0 c -0.588262,-0.25553 -1.223043,-0.40445 -1.868103,-0.42944 a 2.1168783,2.1168783 0 0 0 -5.29e-4,0 c -1.798408,-0.0696 -3.413994,0.83872 -4.457609,2.11925 -1.043615,1.28054 -1.619304,2.95027 -1.619539,4.75475 a 2.1168783,2.1168783 0 0 0 0,5.3e-4 v 7.93491 l -2.851998,12.3951 c -0.488702,2.12424 -0.130954,4.34989 1.091923,6.12935 a 2.1168783,2.1168783 0 0 0 5.29e-4,5.3e-4 l 9.097119,13.2302 c 0.352221,0.51234 0.773274,0.97347 1.259871,1.36115 l 7.894093,6.28747 7.456907,5.93814 a 2.1168783,2.1168783 0 0 0 5.29e-4,0 c 1.909882,1.52059 4.737082,1.52049 6.646622,-5.3e-4 l 15.30700548,-12.19358 a 2.1168783,2.1168783 0 0 0 0,-5.3e-4 c 0.484243,-0.38584 0.903523,-0.84346 1.254701,-1.35289 v -5.3e-4 l 0.50797902,-0.73587 a 2.1168783,2.1168783 0 0 0 5.29e-4,-0.001 l 8.632547,-12.52533 c 1.2269205,-1.78023 1.5862935,-4.00886 1.0970915,-6.13606 L 8.2216475,376.12672 v -7.93492 c -1.32e-4,-1.80305 -0.574879,-3.47236 -1.616956,-4.75268 -1.042077,-1.28032 -2.655329,-2.18908 -4.45244,-2.12235 a 2.1168783,2.1168783 0 0 0 -5.29e-4,0 z m 0.157615,4.23023 h 5.3e-4 c 0.323606,-0.0119 0.647263,0.11691 1.011824,0.56482 0.364744,0.44814 0.66656,1.19828 0.666626,2.07998 v 8.17521 a 2.1168783,2.1168783 0 0 0 0.05374,0.47439 l 2.905768,12.6292 c 0.227102,0.98752 7.94e-4,2.12074 -0.457338,2.78536 l -8.632031,12.52482 -0.507978,0.73587 a 2.1168783,2.1168783 0 0 0 0,5.3e-4 c -0.130474,0.18929 -0.271389,0.33718 -0.40721,0.44545 l -15.3070775,12.19409 c -0.540747,0.43072 -0.831411,0.43081 -1.37201,5.3e-4 h -5.29e-4 l -7.456391,-5.93816 -7.894092,-6.28748 c -0.13658,-0.10881 -0.27766,-0.25729 -0.408761,-0.44803 a 2.1168783,2.1168783 0 0 0 -5.29e-4,-5.3e-4 l -9.096601,-13.22968 -5.3e-4,-5.3e-4 c -0.456788,-0.66513 -0.681552,-1.79644 -0.454752,-2.78226 l 2.90579,-12.62918 a 2.1168783,2.1168783 0 0 0 0.05374,-0.47439 v -8.17469 -5.3e-4 c 2.42e-4,-0.88221 0.302653,-1.63314 0.66766,-2.08101 0.364899,-0.44774 0.688387,-0.57567 1.012341,-0.56328 0.108816,0.004 0.220166,0.0279 0.345199,0.0822 l 7.639844,3.32021 a 2.1168783,2.1168783 0 0 0 0.0031,0.001 c 0.0141,0.006 0.0285,0.0127 0.04289,0.0196 l 12.406991,5.99137 a 2.1168783,2.1168783 0 0 0 1.840717,0 l 12.4100935,-5.99292 a 2.1168783,2.1168783 0 0 0 0.0036,-0.002 c 0.01288,-0.006 0.02558,-0.012 0.03824,-0.0176 l 0.0041,-0.002 7.636227,-3.31814 a 2.1168783,2.1168783 0 0 0 5.29e-4,-5.3e-4 c 0.125614,-0.0546 0.236966,-0.078 0.346234,-0.0822 z" style="color:#000;font-style:normal;font-variant:normal;font-weight:400;font-stretch:normal;font-size:medium;line-height:normal;font-family:sans-serif;font-variant-ligatures:normal;font-variant-position:normal;font-variant-caps:normal;font-variant-numeric:normal;font-variant-alternates:normal;font-feature-settings:normal;text-indent:0;text-align:start;text-decoration:none;text-decoration-line:none;text-decoration-style:solid;text-decoration-color:#000;letter-spacing:normal;word-spacing:normal;text-transform:none;writing-mode:lr-tb;direction:ltr;text-orientation:mixed;dominant-baseline:auto;baseline-shift:baseline;text-anchor:start;white-space:normal;shape-padding:0;clip-rule:nonzero;display:inline;overflow:visible;visibility:visible;opacity:1;isolation:auto;mix-blend-mode:normal;color-interpolation:sRGB;color-interpolation-filters:linearRGB;solid-color:#000;solid-opacity:1;vector-effect:none;fill:url(#linearGradient2332);fill-opacity:1;fill-rule:nonzero;stroke:none;stroke-width:4.23333311;stroke-linecap:butt;stroke-linejoin:round;stroke-miterlimit:100;stroke-dasharray:none;stroke-dashoffset:0;stroke-opacity:1;paint-order:fill markers stroke;color-rendering:auto;image-rendering:auto;shape-rendering:auto;text-rendering:auto;enable-background:accumulate"/><g id="g2021" transform="translate(-52.916745,128.85417)"><path style="opacity:1;fill:#054;fill-opacity:1;stroke:#002b22;stroke-width:37.15025711;stroke-linecap:butt;stroke-linejoin:round;stroke-miterlimit:100;stroke-dasharray:none;stroke-dashoffset:0;stroke-opacity:1;paint-order:fill markers stroke;filter:url(#filter2272-9-8)" id="path2446" d="m 39.216018,18.564622 v 34.537109 l -15.082032,51.806639 44.898438,51.60742 38.964606,24.52501 36.80297,23.16444 75.55078,-47.5664 2.50625,-2.87374 42.60899,-48.85673 -15.08204,-51.806639 V 18.564622 L 212.675,31.515793 144.8,57.42009 76.925002,31.515793 Z" transform="matrix(0.20260485,0,0,0.2563607,4.5294831,234.57862)"/><g id="g1340" style="stroke-width:8.79149342;stroke-miterlimit:100;stroke-dasharray:none;filter:url(#filter2272-9-8)" transform="matrix(0.82500525,0,0,1.1241986,5.9264939,-37.439893)"><path style="opacity:.5;fill:#00d4aa;fill-opacity:1;fill-rule:evenodd;stroke:none;stroke-width:8.79149342;stroke-linecap:butt;stroke-linejoin:miter;stroke-miterlimit:100;stroke-dasharray:none;stroke-opacity:1" id="path985" d="m 33.866669,261.95194 7.1497,20.20371 10.445091,-6.42077 z"/><g style="fill:#5fd;stroke-width:4.8722868;stroke-miterlimit:100;stroke-dasharray:none" id="g864" transform="matrix(1.75,0,0,1.8604649,-25.399998,-233.50539)"><path id="path819" d="m 45.375682,268.08194 -11.509016,12.5139 -10.632468,-5.84541 -6.300865,-6.32543 10.583334,-2.11666 z" style="opacity:1;fill:#80ffe6;fill-opacity:1;stroke:none;stroke-width:4.8722868;stroke-linecap:round;stroke-linejoin:round;stroke-miterlimit:100;stroke-dasharray:none;stroke-dashoffset:0;stroke-opacity:1;paint-order:fill markers stroke"/><path style="opacity:1;fill:#80ffe6;fill-opacity:1;stroke:none;stroke-width:4.8722868;stroke-linecap:round;stroke-linejoin:round;stroke-miterlimit:100;stroke-dasharray:none;stroke-dashoffset:0;stroke-opacity:1;paint-order:fill markers stroke" id="path821" d="m 22.35765,268.08194 11.509016,12.5139 10.602231,-5.83029 6.331102,-6.34055 -10.583333,-2.11666 z"/></g><path id="rect816" d="m 63.500004,265.88992 -12.038544,9.84496 -11.1125,6.42077 -6.482291,6.37769 -6.482292,-6.37769 -11.1125,-6.42077 -12.0385434,-9.84496 11.1125024,-7.87597 18.520833,-2.95349 v 0 0 l 18.520832,2.95349 z" style="opacity:1;fill:url(#linearGradient848);fill-opacity:1;stroke:none;stroke-width:8.79149342;stroke-linecap:round;stroke-linejoin:round;stroke-miterlimit:100;stroke-dasharray:none;stroke-dashoffset:0;stroke-opacity:1;paint-order:fill markers stroke"/><path id="path1156" d="m 7.9375001,246.2 v 7.87597 l -3.7041667,11.81395 12.0385436,9.84496 10.445091,6.42077 7.149701,6.37769 7.1497,-6.37769 10.445091,-6.42077 12.038542,-9.84496 -3.704167,-11.81395 V 246.2 l -9.260416,2.95349 -16.66875,5.90697 -16.66875,-5.90697 z" style="fill:url(#radialGradient1198);fill-opacity:1;fill-rule:evenodd;stroke:none;stroke-width:8.79149342;stroke-linecap:butt;stroke-linejoin:miter;stroke-miterlimit:100;stroke-dasharray:none;stroke-opacity:1"/><path id="path905" d="m 33.866669,261.95194 v 26.5814 l -7.149701,-6.37769 z" style="opacity:.5;fill:#008066;fill-opacity:1;fill-rule:evenodd;stroke:none;stroke-width:8.79149342;stroke-linecap:butt;stroke-linejoin:miter;stroke-miterlimit:100;stroke-dasharray:none;stroke-opacity:1"/><path id="path907" d="m 33.866669,261.95194 -7.149701,20.20371 -10.445091,-6.42077 z" style="opacity:.5;fill:#00d4aa;fill-opacity:1;fill-rule:evenodd;stroke:none;stroke-width:8.79149342;stroke-linecap:butt;stroke-linejoin:miter;stroke-miterlimit:100;stroke-dasharray:none;stroke-opacity:1"/><path id="path909" d="M 33.866669,261.95194 16.271877,275.73488 15.345836,258.01395 Z" style="opacity:.5;fill:#80ffe6;fill-opacity:1;fill-rule:evenodd;stroke:none;stroke-width:8.79149342;stroke-linecap:butt;stroke-linejoin:miter;stroke-miterlimit:100;stroke-dasharray:none;stroke-opacity:1"/><path id="path911" d="m 15.345836,258.01395 0.926041,17.72093 -12.0385436,-9.84496 z" style="opacity:.5;fill:#054;fill-opacity:1;fill-rule:evenodd;stroke:none;stroke-width:8.79149342;stroke-linecap:butt;stroke-linejoin:miter;stroke-miterlimit:100;stroke-dasharray:none;stroke-opacity:1"/><path style="opacity:.5;fill:#008066;fill-opacity:1;fill-rule:evenodd;stroke:none;stroke-width:8.79149342;stroke-linecap:butt;stroke-linejoin:miter;stroke-miterlimit:100;stroke-dasharray:none;stroke-opacity:1" id="path983" d="m 33.866669,261.95194 v 26.5814 l 7.1497,-6.37769 z"/><path style="opacity:.5;fill:#80ffe6;fill-opacity:1;fill-rule:evenodd;stroke:none;stroke-width:8.79149342;stroke-linecap:butt;stroke-linejoin:miter;stroke-miterlimit:100;stroke-dasharray:none;stroke-opacity:1" id="path987" d="m 33.866669,261.95194 17.594791,13.78294 0.926041,-17.72093 z"/><path style="opacity:.5;fill:#054;fill-opacity:1;fill-rule:evenodd;stroke:none;stroke-width:8.79149342;stroke-linecap:butt;stroke-linejoin:miter;stroke-miterlimit:100;stroke-dasharray:none;stroke-opacity:1" id="path989" d="m 52.387501,258.01395 -0.926041,17.72093 12.038541,-9.84496 z"/><path style="opacity:1;fill:#002b22;fill-opacity:1;stroke:none;stroke-width:8.79149342;stroke-linecap:round;stroke-linejoin:round;stroke-miterlimit:100;stroke-dasharray:none;stroke-dashoffset:0;stroke-opacity:1;paint-order:fill markers stroke" id="path828" d="m 41.016369,282.15565 -7.1497,6.37769 -7.149701,-6.37769 7.149701,0.98449 z"/><path id="path832" d="m 26.458335,267.85891 1.852083,-3.93797" style="opacity:1;fill:#2b1100;fill-opacity:1;stroke:none;stroke-width:8.79149342;stroke-linecap:round;stroke-linejoin:round;stroke-miterlimit:100;stroke-dasharray:none;stroke-dashoffset:0;stroke-opacity:1;paint-order:fill markers stroke"/><path id="path834" d="m 26.458335,265.88992 1.852083,-3.93799" style="opacity:1;fill:#2b1100;fill-opacity:1;stroke:none;stroke-width:8.79149342;stroke-linecap:round;stroke-linejoin:round;stroke-miterlimit:100;stroke-dasharray:none;stroke-dashoffset:0;stroke-opacity:1;paint-order:fill markers stroke"/><path id="path836" d="m 25.377954,273.60181 2.237932,-3.56879 v -3.56879 l -13.427601,-2.37922 z" style="fill:#002b22;fill-rule:evenodd;stroke:none;stroke-width:8.79149342;stroke-linecap:butt;stroke-linejoin:miter;stroke-miterlimit:100;stroke-dasharray:none;stroke-opacity:1"/><path style="fill:#002b22;fill-rule:evenodd;stroke:none;stroke-width:8.79149342;stroke-linecap:butt;stroke-linejoin:miter;stroke-miterlimit:100;stroke-dasharray:none;stroke-opacity:1" id="path895" d="m 42.355384,273.60181 -2.237931,-3.56879 v -3.56879 l 13.4276,-2.37922 z"/><path id="path1013" d="m 4.2333334,265.88992 3.7041667,-11.81395 7.4083359,3.93798 z" style="opacity:.5;fill:#008066;fill-opacity:1;fill-rule:evenodd;stroke:none;stroke-width:8.79149342;stroke-linecap:butt;stroke-linejoin:miter;stroke-miterlimit:100;stroke-dasharray:none;stroke-opacity:1"/><path id="path1015" d="M 7.9375001,254.07597 V 246.2 l 9.2604189,2.95349 z" style="opacity:.5;fill:#054;fill-opacity:1;fill-rule:evenodd;stroke:none;stroke-width:8.79149342;stroke-linecap:butt;stroke-linejoin:miter;stroke-miterlimit:100;stroke-dasharray:none;stroke-opacity:1"/><path id="path1017" d="m 7.9375001,254.07597 9.2604189,-4.92248 -1.852083,8.86046 z" style="opacity:.5;fill:#0fc;fill-opacity:1;fill-rule:evenodd;stroke:none;stroke-width:8.79149342;stroke-linecap:butt;stroke-linejoin:miter;stroke-miterlimit:100;stroke-dasharray:none;stroke-opacity:1"/><path id="path1019" d="m 15.345836,258.01395 18.520833,-2.95349 -16.66875,-5.90697 z" style="opacity:.5;fill:#008066;fill-opacity:1;fill-rule:evenodd;stroke:none;stroke-width:8.79149342;stroke-linecap:butt;stroke-linejoin:miter;stroke-miterlimit:100;stroke-dasharray:none;stroke-opacity:1"/><path style="opacity:.5;fill:#008066;fill-opacity:1;fill-rule:evenodd;stroke:none;stroke-width:8.79149342;stroke-linecap:butt;stroke-linejoin:miter;stroke-miterlimit:100;stroke-dasharray:none;stroke-opacity:1" id="path1146" d="m 63.500001,265.88992 -3.704166,-11.81395 -7.408334,3.93798 z"/><path style="opacity:.5;fill:#054;fill-opacity:1;fill-rule:evenodd;stroke:none;stroke-width:8.79149342;stroke-linecap:butt;stroke-linejoin:miter;stroke-miterlimit:100;stroke-dasharray:none;stroke-opacity:1" id="path1148" d="M 59.795835,254.07597 V 246.2 l -9.260416,2.95349 z"/><path style="opacity:.5;fill:#0fc;fill-opacity:1;fill-rule:evenodd;stroke:none;stroke-width:8.79149342;stroke-linecap:butt;stroke-linejoin:miter;stroke-miterlimit:100;stroke-dasharray:none;stroke-opacity:1" id="path1150" d="m 59.795835,254.07597 -9.260416,-4.92248 1.852082,8.86046 z"/><path style="opacity:.5;fill:#008066;fill-opacity:1;fill-rule:evenodd;stroke:none;stroke-width:8.79149342;stroke-linecap:butt;stroke-linejoin:miter;stroke-miterlimit:100;stroke-dasharray:none;stroke-opacity:1" id="path1152" d="m 52.387501,258.01395 -18.520832,-2.95349 16.66875,-5.90697 z"/><path id="path1289" d="m 33.866669,255.06046 -18.520833,2.95349 18.520833,3.93799 18.520833,-3.93799 -18.520833,-2.95349" style="opacity:.5;fill:#00d4aa;fill-rule:evenodd;stroke:none;stroke-width:8.79149342;stroke-linecap:butt;stroke-linejoin:miter;stroke-miterlimit:100;stroke-dasharray:none;stroke-opacity:1"/></g></g></g></g></svg>